<mxfile host="app.diagrams.net" modified="2024-06-24T04:38:06.820Z" agent="Mozilla/5.0 (Windows NT 10.0; Win64; x64) AppleWebKit/537.36 (KHTML, like Gecko) Chrome/126.0.0.0 Safari/537.36 Edg/126.0.0.0" version="24.5.4" etag="0-4uPiwgqxHt7GFvzl9Q" type="github">
  <diagram name="第 1 页" id="zxkhaQtm2vi9eIkTB4cg">
    <mxGraphModel>
      <root>
        <mxCell id="0" />
        <mxCell id="1" parent="0" />
      </root>
    </mxGraphModel>
  </diagram>
</mxfile>
